<svg width="30" height="30" viewBox="0 0 30 30" fill="none" xmlns="http://www.w3.org/2000/svg">
<path d="M15 1.20001C7.3782 1.20001 1.2 7.37821 1.2 15C1.2 22.6218 7.3782 28.8 15 28.8C22.6218 28.8 28.8 22.6218 28.8 15C28.8 7.37821 22.6218 1.20001 15 1.20001ZM15 6.60001C15.9942 6.60001 16.8 7.40581 16.8 8.40001C16.8 9.39421 15.9942 10.2 15 10.2C14.0058 10.2 13.2 9.39421 13.2 8.40001C13.2 7.40581 14.0058 6.60001 15 6.60001ZM17.4 22.8H16.2H13.8H12.6V21.6H13.8V13.8H12.6V12.6H13.8H16.2V13.8V21.6H17.4V22.8Z" fill="#0061FF"/>
</svg>
